<?xml version="1.0" encoding="utf-8"?>
<!-- Generator: Adobe Illustrator 16.2.0, SVG Export Plug-In . SVG Version: 6.00 Build 0)  -->
<!DOCTYPE svg PUBLIC "-//W3C//DTD SVG 1.1//EN" "http://www.w3.org/Graphics/SVG/1.1/DTD/svg11.dtd">
<svg version="1.1" id="Layer_1" xmlns="http://www.w3.org/2000/svg" xmlns:xlink="http://www.w3.org/1999/xlink" x="0px" y="0px"
	 width="213.103px" height="229.759px" viewBox="0 0 213.103 229.759" enable-background="new 0 0 213.103 229.759"
	 xml:space="preserve">
<g>
	<path fill="#7A232E" d="M69.042,78.472c0,0-1.406,80.087-5.648,108.199c-4.245,28.112-12.201,39.253-12.201,39.253h15.383
		c0,0,14.852-21.832,12.201-140.871C78.776,85.052,74.194,66.506,69.042,78.472z"/>
	<g>
		<path fill="#7A232E" d="M75.458,81.884c2.725-7.384-2.797-21.743-7.721-26.652c-5.679-5.656-14.585-8.653-22.573-10.188
			c-12.586-2.422-22.549,1.513-33.865,7.669c8.292,1.835,14.842,1.456,23.173,3.112c10.456,2.081,15.363,6.667,18.416,10.396
			c5.346,6.531,15.241,13.704,21.678,17.741L75.458,81.884z"/>
		<path fill="#7A232E" d="M73.073,82.499c-3.297-7.148-17.355-13.396-24.309-13.384c-8.013,0.012-16.429,4.193-23.163,8.755
			c-10.614,7.188-14.874,17.012-18.521,29.37c7.158-4.565,11.524-9.467,18.586-14.185c8.862-5.921,15.576-6.147,20.372-5.67
			c8.398,0.838,20.468-1.086,27.875-2.782L73.073,82.499z"/>
		<path fill="#7A232E" d="M72.096,79.496c-1.299-7.766,6.809-20.84,12.562-24.742c6.635-4.498,15.942-5.78,24.075-5.795
			c12.819-0.032,21.869,5.693,31.839,13.855c-8.487,0.255-14.854-1.341-23.35-1.27c-10.656,0.092-16.334,3.682-20.026,6.776
			c-6.469,5.418-17.534,10.62-24.613,13.382L72.096,79.496z"/>
		<path fill="#7A232E" d="M71.363,81.11c5.7-5.427,21.07-6.045,27.531-3.469c7.443,2.971,13.722,9.962,18.296,16.685
			c7.213,10.602,7.546,21.306,6.375,34.135c-4.969-6.886-7.215-13.052-12.04-20.044c-6.05-8.775-12.204-11.463-16.841-12.787
			c-8.112-2.323-18.618-8.567-24.876-12.878L71.363,81.11z"/>
	</g>
</g>
<g>
	<path fill="#7A232E" d="M116.771,49.475c0,0-1.681,95.836-6.759,129.478s-14.599,46.971-14.599,46.971h18.407
		c0,0,17.772-26.124,14.599-168.574C128.419,57.349,122.938,35.156,116.771,49.475z"/>
	<g>
		<path fill="#7A232E" d="M124.451,53.558c3.26-8.837-3.348-26.02-9.241-31.894c-6.789-6.769-17.45-10.354-27.007-12.191
			c-15.065-2.898-26.984,1.81-40.524,9.177c9.918,2.197,17.758,1.743,27.73,3.724c12.509,2.489,18.38,7.979,22.032,12.442
			c6.397,7.815,18.239,16.399,25.943,21.229L124.451,53.558z"/>
		<path fill="#7A232E" d="M121.596,54.294c-3.942-8.554-20.768-16.032-29.089-16.017c-9.586,0.015-19.657,5.018-27.716,10.476
			c-12.704,8.604-17.803,20.359-22.166,35.146c8.566-5.462,13.791-11.329,22.24-16.975c10.607-7.086,18.641-7.356,24.379-6.786
			c10.049,1.004,24.492-1.299,33.355-3.33L121.596,54.294z"/>
		<path fill="#7A232E" d="M120.426,50.699c-1.553-9.291,8.147-24.936,15.035-29.607c7.937-5.383,19.074-6.915,28.81-6.935
			c15.34-0.037,26.168,6.813,38.099,16.581c-10.155,0.307-17.775-1.604-27.94-1.518c-12.752,0.109-19.546,4.406-23.967,8.108
			c-7.741,6.484-20.981,12.707-29.451,16.012L120.426,50.699z"/>
		<path fill="#7A232E" d="M119.548,52.633c6.823-6.496,25.216-7.235,32.947-4.153c8.906,3.556,16.419,11.921,21.894,19.967
			c8.631,12.685,9.03,25.494,7.627,40.847c-5.946-8.239-8.634-15.618-14.405-23.986c-7.24-10.5-14.604-13.716-20.151-15.301
			c-9.709-2.779-22.283-10.25-29.771-15.41L119.548,52.633z"/>
	</g>
</g>
</svg>
