<?xml version="1.0" encoding="utf-8"?>
<!-- Generator: Adobe Illustrator 16.2.0, SVG Export Plug-In . SVG Version: 6.00 Build 0)  -->
<!DOCTYPE svg PUBLIC "-//W3C//DTD SVG 1.1//EN" "http://www.w3.org/Graphics/SVG/1.1/DTD/svg11.dtd">
<svg version="1.1" id="Layer_1" xmlns="http://www.w3.org/2000/svg" xmlns:xlink="http://www.w3.org/1999/xlink" x="0px" y="0px"
	 width="612px" height="287px" viewBox="0 0 612 287" enable-background="new 0 0 612 287" xml:space="preserve">
<polygon fill="#DD5F13" points="1,0 459.767,0 586,210 1,250.701 "/>
<g>
	<path fill="#414042" d="M216.2,0c0,0,6.817,31.506,6.817,34.987c0,3.479-6.96,9.529-6.96,9.529L210.098,0H216.2z"/>
	<g>
		<path fill="#414042" d="M250.18,3.545c1.332,1.256,2.823,2.363,4.168,3.621c0.932,0.87,2.376,1.816,2.967,2.952
			c-1.813,0.23-3.476-1.984-4.849-2.925c-1.408-0.965-3.23-1.515-4.749-2.181c0.214,1.308,0.943,3.133,0.599,4.317
			c-1.875-2.277-2.893-5.367-5.705-6.881c-0.212,1.884-0.624,3.817-0.996,5.696c-1.045-0.679-0.961-2.899-1.098-4.098
			c-0.158-1.367-0.473-2.702-0.754-4.047h7.268c2.402,1.187,4.652,2.3,6.738,4.176C252.589,4.213,251.429,3.407,250.18,3.545z"/>
		<path fill="#414042" d="M218.667,1.62c0.121-0.532,0.323-1.075,0.575-1.62h1.22C219.91,0.656,219.33,1.244,218.667,1.62z"/>
		<path fill="#414042" d="M231.877,1.687c-0.716,1.172-2.124,2.94-2.29,4.269c-0.535-1.949,0.119-3.961,0.585-5.956h2.923
			C232.607,0.554,232.194,1.165,231.877,1.687z"/>
		<path fill="#414042" d="M224.265,4.66c0.088-1.535,0.283-3.12,0.602-4.66h2.111C225.767,1.47,224.76,3.152,224.265,4.66z"/>
		<path fill="#414042" d="M237.268,7.623c-0.511-2.505-0.503-4.943-0.979-7.468c-0.01-0.054-0.017-0.104-0.024-0.154h2.885
			C238.189,2.248,236.935,5.235,237.268,7.623z"/>
		<path fill="#414042" d="M237.268,7.623c0.056,0.277,0.114,0.555,0.185,0.834C237.362,8.19,237.308,7.909,237.268,7.623z"/>
	</g>
	<path fill="#414042" d="M228.214,1.995c-0.434-0.292-0.882-0.51-1.348-0.592C227.311,1.601,227.761,1.802,228.214,1.995
		c1.125,0.756,2.157,2.033,3.146,2.908c1.979,1.749,4.152,3.635,5.46,6.564c-1.24-1.242-2.909-2.023-4.159-3.39
		c2.566,4.227,5.113,7.421,6.846,12.56c-1.191-0.486-2.019-2.288-3.32-2.646c0.818,2.586,1.854,5.013,2.682,7.607
		c0.576,1.797,1.633,3.947,1.76,6.005c-1.898-0.474-2.658-4.717-3.645-6.827c-1.012-2.165-2.603-3.868-3.846-5.614
		c-0.318,2.154-0.333,5.357-1.156,7.059c-0.945-4.442-0.704-9.765-2.891-13.437c-0.977,2.863-2.171,5.709-3.305,8.492
		c-0.766-1.548,0.219-4.998,0.568-6.943c0.496-2.761,0.727-5.552,1.094-8.337c-1.859,3.136-4.996,7.869-5.768,12.339
		c0.513-4.125,1.498-7.918,2.043-12.063c0.152-1.151,0.424-1.766,0.311-2.921c-1.744-0.829-3.967,1.564-5.328,3.297
		c-1.188,1.515-3.31,3.641-4.014,5.655c0.351-4.504,2.945-8.181,4.234-12.301h8.457c1.369,0.869,2.73,1.751,3.902,2.935
		C230.239,2.786,229.215,2.417,228.214,1.995z"/>
	<g>
		<path fill="#414042" d="M188.934,18.333c0.087,0.51,0.147,1.016,0.167,1.516C189.055,19.337,188.995,18.835,188.934,18.333z"/>
		<path fill="#414042" d="M182.399,1.995c0.436-0.292,0.883-0.51,1.348-0.592C183.304,1.601,182.854,1.802,182.399,1.995z"/>
		<path fill="#414042" d="M195.922,12.301c-0.705-2.014-2.826-4.14-4.015-5.655c-1.359-1.733-3.582-4.126-5.327-3.297
			c-0.112,1.155,0.158,1.77,0.31,2.921c0.547,4.146,1.531,7.939,2.044,12.063c-0.771-4.47-3.909-9.203-5.769-12.339
			c0.368,2.786,0.6,5.576,1.094,8.337c0.35,1.946,1.334,5.396,0.569,6.943c-1.134-2.783-2.328-5.629-3.305-8.492
			c-2.187,3.672-1.946,8.995-2.891,13.437c-0.823-1.702-0.837-4.905-1.155-7.059c-1.243,1.747-2.836,3.45-3.848,5.614
			c-0.986,2.11-1.744,6.353-3.643,6.827c0.127-2.058,1.183-4.208,1.758-6.005c0.829-2.594,1.865-5.021,2.684-7.607
			c-1.303,0.358-2.13,2.16-3.321,2.646c1.731-5.139,4.28-8.333,6.847-12.56c-1.251,1.367-2.92,2.148-4.16,3.39
			c1.309-2.929,3.48-4.815,5.459-6.564c0.99-0.875,2.023-2.152,3.146-2.908c0.454-0.192,0.904-0.394,1.348-0.592
			c-0.465,0.083-0.912,0.3-1.348,0.592c-1,0.422-2.024,0.792-3.072,0.94C180.5,1.751,181.86,0.869,183.231,0h8.456
			C192.976,4.12,195.57,7.796,195.922,12.301z"/>
		<path fill="#414042" d="M200.699,7.815c-1.515-2.932-4.114-5.939-6.622-7.815h3.805C198.958,2.498,199.907,5.172,200.699,7.815z"
			/>
		<path fill="#414042" d="M204.136,0h0.691c0.074,0.154,0.148,0.307,0.215,0.462C204.741,0.356,204.438,0.195,204.136,0z"/>
	</g>
	<g>
		<path fill="#414042" d="M209.501,23.911c0.236,0.671,0.439,1.347,0.597,2.022C209.907,25.25,209.706,24.576,209.501,23.911z"/>
		<path fill="#414042" d="M198.721,1.635c-0.468,0.401-0.941,0.808-1.425,1.205C197.728,2.308,198.196,1.88,198.721,1.635z"/>
		<path fill="#414042" d="M215.048,0h2.408c1.051,1.923,2.055,3.897,2.996,5.871C218.97,3.766,217.061,1.723,215.048,0z"/>
		<path fill="#414042" d="M216.058,13.475c-1.383-2.618-4.467-5-6.281-6.784c-2.08-2.045-5.357-4.771-7.184-3.125
			c0.186,1.648,0.674,2.431,1.168,3.999c1.789,5.66,4.002,10.7,5.74,16.346c-2.127-6.053-7.144-11.817-10.203-15.693
			c1.199,3.793,2.238,7.63,3.58,11.353c0.946,2.624,3.055,7.173,2.578,9.549c-2.1-3.574-4.29-7.221-6.227-10.951
			c-1.566,5.744,0.18,13.121,0.287,19.595c-1.438-2.15-2.334-6.626-3.3-9.548c-0.985,2.79-2.392,5.613-2.988,8.923
			c-0.583,3.225-0.31,9.37-2.416,10.562c-0.417-2.911,0.236-6.214,0.421-8.886c0.263-3.858,0.816-7.541,1.07-11.385
			c-1.436,0.864-1.916,3.613-3.187,4.625c0.63-7.667,2.752-12.843,4.613-19.47c-1.097,2.261-2.849,3.82-3.968,5.9
			c0.736-4.459,2.777-7.702,4.626-10.701c0.925-1.5,1.792-3.573,2.907-4.943c0.483-0.396,0.957-0.803,1.425-1.205
			c-0.524,0.245-0.993,0.673-1.425,1.205c-1.063,0.869-2.166,1.671-3.359,2.172c1.016-1.908,2.313-3.473,3.636-5.011h11.487
			C211.583,4.327,214.672,8.272,216.058,13.475z"/>
	</g>
</g>
<g>
	<path d="M242.719,0c0,0-6.817,31.506-6.817,34.987c0,3.479,6.96,9.53,6.96,9.53L248.821,0H242.719z"/>
	<g>
		<path d="M208.741,3.545c-1.334,1.256-2.826,2.364-4.17,3.621c-0.932,0.87-2.377,1.816-2.966,2.952
			c1.812,0.23,3.474-1.984,4.847-2.925c1.41-0.965,3.23-1.515,4.75-2.181c-0.213,1.308-0.942,3.133-0.6,4.316
			c1.877-2.277,2.895-5.367,5.705-6.881c0.213,1.884,0.625,3.817,0.997,5.697c1.044-0.679,0.962-2.9,1.099-4.098
			c0.156-1.368,0.472-2.703,0.754-4.047h-7.268c-2.402,1.187-4.652,2.301-6.74,4.177C206.33,4.214,207.489,3.407,208.741,3.545z"/>
		<path d="M240.252,1.62c-0.122-0.532-0.324-1.075-0.576-1.62h-1.219C239.009,0.656,239.589,1.244,240.252,1.62z"/>
		<path d="M227.042,1.687c0.715,1.172,2.124,2.94,2.289,4.269c0.535-1.949-0.119-3.961-0.584-5.956h-2.922
			C226.312,0.554,226.725,1.166,227.042,1.687z"/>
		<path d="M234.654,4.66c-0.087-1.535-0.284-3.12-0.603-4.66h-2.111C233.153,1.471,234.159,3.152,234.654,4.66z"/>
		<path d="M221.651,7.623c0.51-2.505,0.503-4.943,0.978-7.468c0.011-0.054,0.018-0.103,0.025-0.154h-2.886
			C220.729,2.248,221.985,5.236,221.651,7.623z"/>
		<path d="M221.651,7.623c-0.057,0.278-0.113,0.555-0.185,0.834C221.556,8.19,221.611,7.91,221.651,7.623z"/>
	</g>
	<path d="M230.704,1.995c0.436-0.292,0.883-0.51,1.348-0.593C231.608,1.601,231.158,1.802,230.704,1.995
		c-1.123,0.756-2.156,2.033-3.146,2.908c-1.979,1.75-4.15,3.636-5.459,6.564c1.24-1.242,2.908-2.023,4.159-3.391
		c-2.566,4.227-5.114,7.421-6.846,12.56c1.191-0.486,2.019-2.287,3.321-2.646c-0.818,2.586-1.854,5.013-2.684,7.607
		c-0.574,1.796-1.631,3.947-1.758,6.004c1.898-0.473,2.656-4.717,3.644-6.827c1.012-2.165,2.603-3.867,3.847-5.614
		c0.318,2.154,0.331,5.357,1.156,7.059c0.943-4.441,0.703-9.765,2.89-13.437c0.977,2.863,2.171,5.709,3.306,8.492
		c0.764-1.548-0.221-4.998-0.568-6.944c-0.496-2.761-0.727-5.551-1.096-8.337c1.859,3.136,4.997,7.869,5.77,12.339
		c-0.514-4.125-1.498-7.918-2.045-12.064c-0.152-1.151-0.422-1.766-0.31-2.92c1.743-0.83,3.968,1.563,5.329,3.296
		c1.188,1.515,3.309,3.641,4.013,5.655c-0.352-4.504-2.946-8.18-4.235-12.301h-8.454c-1.372,0.869-2.731,1.751-3.904,2.935
		C228.68,2.786,229.704,2.417,230.704,1.995z"/>
	<g>
		<path d="M269.985,18.334c-0.088,0.51-0.146,1.016-0.168,1.515C269.864,19.338,269.923,18.835,269.985,18.334z"/>
		<path d="M276.519,1.995c-0.434-0.292-0.883-0.51-1.347-0.593C275.616,1.601,276.065,1.802,276.519,1.995z"/>
		<path d="M262.997,12.301c0.705-2.014,2.826-4.14,4.013-5.655c1.362-1.733,3.585-4.126,5.329-3.296
			c0.112,1.155-0.158,1.769-0.311,2.92c-0.546,4.146-1.53,7.939-2.043,12.064c0.771-4.47,3.91-9.203,5.768-12.339
			c-0.367,2.786-0.598,5.576-1.094,8.337c-0.348,1.946-1.334,5.396-0.568,6.944c1.133-2.783,2.328-5.629,3.305-8.492
			c2.187,3.672,1.947,8.996,2.891,13.437c0.824-1.702,0.838-4.905,1.156-7.059c1.242,1.747,2.834,3.45,3.846,5.614
			c0.987,2.11,1.746,6.354,3.643,6.827c-0.125-2.058-1.183-4.208-1.757-6.004c-0.829-2.594-1.864-5.021-2.685-7.607
			c1.303,0.358,2.131,2.159,3.322,2.646c-1.732-5.139-4.279-8.333-6.846-12.56c1.25,1.368,2.92,2.149,4.16,3.391
			c-1.309-2.929-3.482-4.814-5.461-6.564c-0.988-0.875-2.021-2.152-3.146-2.908c-0.453-0.193-0.902-0.394-1.347-0.593
			c0.464,0.083,0.913,0.3,1.347,0.593c1.001,0.422,2.025,0.791,3.072,0.94c-1.172-1.184-2.533-2.066-3.904-2.935h-8.454
			C265.943,4.121,263.349,7.797,262.997,12.301z"/>
		<path d="M258.22,7.815c1.514-2.932,4.115-5.939,6.622-7.815h-3.805C259.962,2.498,259.011,5.173,258.22,7.815z"/>
		<path d="M254.782,0h-0.691c-0.073,0.154-0.146,0.307-0.215,0.462C254.179,0.357,254.479,0.195,254.782,0z"/>
	</g>
	<g>
		<path d="M249.417,23.911c-0.235,0.671-0.438,1.347-0.596,2.023C249.012,25.25,249.212,24.576,249.417,23.911z"/>
		<path d="M260.198,1.635c0.467,0.401,0.942,0.809,1.425,1.205C261.19,2.309,260.724,1.88,260.198,1.635z"/>
		<path d="M243.871,0h-2.409c-1.05,1.923-2.055,3.898-2.995,5.871C239.948,3.766,241.858,1.723,243.871,0z"/>
		<path d="M242.861,13.475c1.384-2.618,4.466-4.999,6.282-6.784c2.08-2.045,5.355-4.771,7.182-3.124
			c-0.184,1.647-0.672,2.43-1.167,3.999c-1.788,5.66-4.001,10.701-5.741,16.346c2.127-6.053,7.144-11.816,10.205-15.693
			c-1.199,3.793-2.238,7.63-3.581,11.353c-0.946,2.623-3.054,7.172-2.578,9.549c2.1-3.574,4.29-7.221,6.227-10.951
			c1.566,5.745-0.18,13.121-0.288,19.595c1.439-2.15,2.335-6.625,3.302-9.548c0.983,2.79,2.392,5.614,2.989,8.923
			c0.581,3.225,0.309,9.37,2.414,10.562c0.416-2.911-0.236-6.214-0.42-8.886c-0.264-3.858-0.816-7.542-1.07-11.386
			c1.436,0.864,1.915,3.613,3.186,4.625c-0.629-7.667-2.752-12.843-4.613-19.471c1.098,2.261,2.849,3.82,3.968,5.9
			c-0.735-4.458-2.776-7.702-4.626-10.701c-0.926-1.5-1.792-3.572-2.907-4.943c-0.482-0.396-0.958-0.803-1.425-1.205
			c0.525,0.246,0.992,0.674,1.425,1.205c1.062,0.869,2.167,1.672,3.359,2.172c-1.015-1.908-2.313-3.473-3.636-5.011H249.86
			C247.336,4.327,244.247,8.272,242.861,13.475z"/>
	</g>
</g>
<path fill="#5D181A" d="M398.535,284.524l20.454-198.626l-18.469-1.797l-19.813,203.6"/>
<path fill="#002D73" d="M366.792,101.65c15.202-6.276,32.284-6.575,48.334-4.022c8.599,1.368,16.734,3.716,24.92,6.656
	c5.08,1.824,10.012,3.619,14.145,6.735C452.368,72.36,451.623,27.674,451.322,0h-40.991
	c-17.056,30.558-32.561,76.904-46.303,103.584c0.135,0.02,0.271,0.039,0.404,0.06C364.913,102.76,365.769,102.073,366.792,101.65z"
	/>
<path fill="#00A1DF" d="M281.321,0c-24.293,8.064-41.846,17.415-50.631,27.558C249.169,21.123,284.134,9.443,320.253,0H281.321z"/>
<path fill="#00A1DF" d="M613,0H451.322c0.305,28.032,1.065,73.519,2.939,112.514c0.829,0.045,37.07-12.515,68.404,0.132
	c39.433,15.917,89.327,0.103,90.334,0.151V0z"/>
<path fill="#00A1DF" d="M379.669,0c-22.26,14.533-59.814,41.487-91.914,87.025c0.232,0.073,0.469,0.143,0.704,0.215
	c0.311-0.211,0.652-0.393,1.014-0.539c7.911-3.188,16.744-4.257,25.224-3.597c4.24,0.332,8.488,0.956,12.609,2.024
	c3.216,0.833,6.273,2.077,9.449,3.025c9.256,2.762,23.295,4.798,26.65,15.335c0.209,0.031,0.415,0.063,0.623,0.095
	C377.771,76.904,393.275,30.558,410.331,0H379.669z"/>
<path fill="#002D73" d="M320.253,0c-36.119,9.443-71.084,21.123-89.563,27.558c-0.582,0.673-1.122,1.348-1.627,2.028
	c27.314,7.72,53.824,28.604,58.516,57.386c0.059,0.018,0.116,0.036,0.176,0.054c32.1-45.539,69.654-72.493,91.914-87.025H320.253z"
	/>
<path fill="#FFFFFF" d="M399.639,280.728c8.004-22.142,4.372-23.88,4.372-48.784c0-115.209-93.396-208.605-208.606-208.605
	c-13.992,0-126.051,12.93-156.5,122.875l108.003,135.725"/>
<path fill="#009444" d="M315.576,275.371c4.617-53.193-1.848-97.276-9.473-126.88c-9.858-38.271-51.826-81.354-51.826-81.354
	s-47.801,33.806-58.873,5.392c-11.071-28.413-17.45,109.593-17.45,137.426c0,10.646-0.121,38.783,0.453,68.862"/>
<g>
	<path fill="#FFF200" d="M287.79,44.862c-11.082-0.529-24.088-0.484-39.352,0.369l5.116,22.402c0.47-0.317,0.723-0.496,0.723-0.496
		s1.269,1.304,3.415,3.655c11.74,0.068,51.227,0.802,78.662,7.37C321.894,64.903,305.559,53.652,287.79,44.862z"/>
</g>
<g>
	<path fill="#00AEEF" d="M105.908,53.609c12.943-5.909,63.796-18.073,84.865-10.097l-3.793,31.383
		c-0.47-0.317-0.723-0.496-0.723-0.496s3.883,1.412,1.736,3.763c-73.155,3.327-124.063,47.436-149.089,68.051
		C54.928,95.31,80.486,67.137,105.908,53.609z"/>
</g>
<path fill="#BE1E2D" d="M190.089,39.819h44.846c1.672-4.459,2.136-8.712,2.049-12.335c-13.437-2.718-27.342-4.146-41.579-4.146
	c-2.214,0-4.419,0.039-6.614,0.107C188.341,31.072,190.089,39.819,190.089,39.819z"/>
<path fill="#002D73" d="M536.145,106.608c12.521,8.118,18.73,6.561,31.854-3.023c7.032-5.134,20.144-6.303,28-10.036
	C600.873,91.231,607.877,71.4,613,70.666C584.297,44.706,556.505,19.296,536.665,0h-41.923
	c9.649,33.638,31.591,81.376,40.826,109.932c0.108-0.082,0.218-0.165,0.328-0.245C535.607,108.723,535.215,106.005,536.145,106.608z
	"/>
<ellipse transform="matrix(0.9946 0.1036 -0.1036 0.9946 7.2492 -21.9846)" fill="#002D73" cx="215.188" cy="58.769" rx="40.166" ry="28.409"/>
<path d="M613,287V67.137C467.749,169.179,38.839,151.273,1,142.168V285"/>
<g>
	<g>
		<g>
			<path fill="#FFFFFF" d="M210.435,114.439c-3.795,0-6.871,4.679-6.871,10.452c0,5.771,3.076,10.451,6.871,10.451
				s6.872-4.68,6.872-10.451C217.307,119.118,214.229,114.439,210.435,114.439z M207.106,129.006c-1.127,0-2.039-1.947-2.039-4.348
				c0-2.403,0.912-4.349,2.039-4.349s2.04,1.946,2.04,4.349C209.146,127.059,208.233,129.006,207.106,129.006z"/>
			<rect x="198.337" y="114.225" fill="#FFFFFF" width="7.805" height="29.563"/>
		</g>
		<polygon fill="#FFFFFF" points="229.476,114.976 226.97,114.976 226.97,108.713 219.167,108.713 219.167,114.976 216.974,114.976 
			216.974,121.097 219.167,121.097 219.167,135.341 226.97,135.341 226.97,121.097 229.476,121.097 		"/>
		<rect x="231.103" y="114.726" fill="#FFFFFF" width="7.803" height="20.616"/>
		<circle fill="#FFFFFF" cx="235.004" cy="108.608" r="4.542"/>
	</g>
	<g>
		<path fill="#FFFFFF" d="M243.565,129.6c0.207-0.087,0.447-0.166,0.715-0.234c0.269-0.068,0.538-0.103,0.811-0.103
			c0.399,0.008,0.774,0.097,1.122,0.264c0.349,0.168,0.653,0.39,0.913,0.667c0.261,0.277,0.467,0.599,0.618,0.967
			c0.153,0.368,0.229,0.761,0.229,1.177c0,0.433-0.075,0.836-0.229,1.213c-0.151,0.377-0.357,0.705-0.618,0.985
			c-0.26,0.281-0.564,0.503-0.913,0.666c-0.348,0.164-0.723,0.246-1.122,0.246c-0.289,0-0.563-0.026-0.822-0.083
			c-0.26-0.056-0.49-0.137-0.691-0.24v2.438h-0.78v-8.228h0.769V129.6z M243.565,134.284c0.119,0.056,0.324,0.127,0.613,0.216
			c0.287,0.089,0.592,0.14,0.912,0.156c0.288-0.007,0.561-0.075,0.816-0.198c0.256-0.125,0.479-0.291,0.666-0.499
			c0.189-0.209,0.337-0.452,0.445-0.734c0.107-0.28,0.162-0.576,0.162-0.888s-0.055-0.604-0.162-0.876
			c-0.108-0.272-0.256-0.511-0.445-0.714c-0.188-0.205-0.41-0.367-0.666-0.486c-0.256-0.121-0.528-0.18-0.816-0.18
			c-0.16,0-0.33,0.022-0.51,0.065c-0.181,0.044-0.348,0.09-0.499,0.139c-0.177,0.056-0.349,0.12-0.517,0.192V134.284z"/>
		<path fill="#FFFFFF" d="M251.612,130.213c-0.28-0.089-0.453-0.132-0.517-0.132c-0.16,0-0.318,0.04-0.475,0.119
			c-0.155,0.08-0.298,0.185-0.426,0.313s-0.24,0.266-0.337,0.415c-0.095,0.148-0.164,0.294-0.203,0.439
			c0,0.255,0.002,0.555,0.006,0.9s0.005,0.701,0.005,1.068v2.007h-0.804l-0.013-6.005h0.806v0.528
			c0.384-0.4,0.852-0.601,1.404-0.601c0.023,0,0.064,0.001,0.121,0.006c0.055,0.004,0.115,0.012,0.18,0.025
			c0.064,0.012,0.128,0.023,0.191,0.036c0.064,0.011,0.121,0.025,0.168,0.042L251.612,130.213z"/>
		<path fill="#FFFFFF" d="M254.711,134.644c0.144,0,0.298-0.017,0.462-0.054c0.164-0.036,0.324-0.079,0.48-0.131
			c0.156-0.053,0.303-0.114,0.439-0.187c0.135-0.072,0.256-0.144,0.359-0.216l0.324,0.757c-0.232,0.168-0.513,0.304-0.84,0.408
			c-0.33,0.104-0.641,0.176-0.938,0.216c-0.04,0.008-0.095,0.012-0.162,0.012c-0.068,0-0.118,0-0.15,0
			c-0.336,0-0.654-0.073-0.954-0.222c-0.3-0.148-0.564-0.352-0.794-0.612c-0.227-0.26-0.414-0.566-0.558-0.919
			c-0.145-0.352-0.229-0.732-0.253-1.141v-0.204c0-0.424,0.064-0.825,0.193-1.201c0.127-0.376,0.302-0.705,0.521-0.985
			c0.221-0.281,0.477-0.503,0.77-0.667c0.292-0.164,0.605-0.246,0.942-0.246s0.651,0.07,0.942,0.21
			c0.293,0.14,0.547,0.339,0.763,0.595c0.216,0.255,0.385,0.562,0.505,0.919c0.12,0.356,0.18,0.75,0.18,1.183v0.443h-3.986
			c0.031,0.281,0.1,0.543,0.203,0.788c0.104,0.243,0.234,0.459,0.391,0.648c0.156,0.188,0.332,0.336,0.529,0.444
			C254.277,134.59,254.487,134.644,254.711,134.644z M256.152,131.81c-0.048-0.248-0.122-0.478-0.222-0.69
			c-0.102-0.212-0.221-0.396-0.361-0.552c-0.141-0.157-0.295-0.277-0.468-0.367c-0.173-0.087-0.354-0.131-0.547-0.131
			c-0.392,0-0.737,0.158-1.032,0.474c-0.297,0.317-0.48,0.739-0.553,1.268H256.152z"/>
		<path fill="#FFFFFF" d="M261.28,130.632c-0.184-0.176-0.402-0.311-0.654-0.408c-0.252-0.096-0.507-0.144-0.762-0.144
			c-0.337,0-0.621,0.073-0.854,0.221c-0.231,0.149-0.347,0.344-0.347,0.583c0,0.232,0.119,0.451,0.359,0.655s0.545,0.334,0.912,0.39
			c0.266,0.048,0.516,0.13,0.751,0.247c0.236,0.116,0.441,0.257,0.613,0.42c0.173,0.164,0.308,0.348,0.408,0.552
			c0.101,0.204,0.15,0.415,0.15,0.631c0,0.239-0.054,0.462-0.163,0.666c-0.107,0.205-0.252,0.381-0.432,0.529
			s-0.395,0.262-0.643,0.342c-0.248,0.08-0.508,0.12-0.78,0.12c-0.36,0-0.727-0.08-1.101-0.24c-0.371-0.16-0.682-0.392-0.93-0.697
			l0.612-0.456c0.169,0.167,0.376,0.31,0.624,0.426c0.249,0.117,0.5,0.173,0.758,0.173c0.352,0,0.648-0.08,0.888-0.24
			c0.241-0.16,0.36-0.368,0.36-0.624c0-0.112-0.035-0.225-0.107-0.337c-0.072-0.112-0.166-0.217-0.282-0.311
			c-0.116-0.097-0.25-0.186-0.401-0.266c-0.152-0.08-0.309-0.14-0.469-0.18c-0.265-0.04-0.514-0.121-0.746-0.24
			s-0.436-0.262-0.611-0.427c-0.178-0.164-0.316-0.343-0.422-0.54c-0.104-0.196-0.156-0.398-0.156-0.606
			c0-0.241,0.057-0.459,0.17-0.654c0.111-0.197,0.26-0.365,0.443-0.505c0.185-0.14,0.4-0.248,0.648-0.325
			c0.248-0.076,0.514-0.114,0.794-0.114c0.384,0,0.753,0.083,1.11,0.247c0.356,0.164,0.658,0.378,0.906,0.642L261.28,130.632z"/>
		<path fill="#FFFFFF" d="M265.196,134.644c0.145,0,0.298-0.017,0.463-0.054c0.162-0.036,0.322-0.079,0.479-0.131
			c0.156-0.053,0.303-0.114,0.438-0.187c0.137-0.072,0.256-0.144,0.361-0.216l0.323,0.757c-0.232,0.168-0.513,0.304-0.84,0.408
			c-0.329,0.104-0.642,0.176-0.938,0.216c-0.039,0.008-0.094,0.012-0.161,0.012c-0.069,0-0.118,0-0.151,0
			c-0.336,0-0.653-0.073-0.954-0.222c-0.3-0.148-0.565-0.352-0.792-0.612c-0.229-0.26-0.414-0.566-0.559-0.919
			c-0.145-0.352-0.229-0.732-0.253-1.141v-0.204c0-0.424,0.064-0.825,0.192-1.201c0.129-0.376,0.303-0.705,0.522-0.985
			c0.222-0.281,0.477-0.503,0.769-0.667c0.293-0.164,0.607-0.246,0.943-0.246s0.65,0.07,0.941,0.21
			c0.294,0.14,0.548,0.339,0.764,0.595c0.217,0.255,0.385,0.562,0.504,0.919c0.121,0.356,0.182,0.75,0.182,1.183v0.443h-3.988
			c0.031,0.281,0.1,0.543,0.203,0.788c0.105,0.243,0.236,0.459,0.391,0.648c0.157,0.188,0.334,0.336,0.529,0.444
			C264.763,134.59,264.972,134.644,265.196,134.644z M266.638,131.81c-0.049-0.248-0.123-0.478-0.223-0.69s-0.221-0.396-0.36-0.552
			c-0.14-0.157-0.296-0.277-0.468-0.367c-0.174-0.087-0.355-0.131-0.547-0.131c-0.393,0-0.737,0.158-1.033,0.474
			c-0.296,0.317-0.48,0.739-0.553,1.268H266.638z"/>
		<path fill="#FFFFFF" d="M269.003,129.84c0.384-0.4,0.857-0.601,1.418-0.601c0.279,0,0.544,0.058,0.791,0.174
			c0.249,0.116,0.467,0.277,0.656,0.48c0.188,0.205,0.338,0.444,0.45,0.715c0.112,0.272,0.171,0.564,0.18,0.877l0.036,3.855h-0.793
			l-0.012-3.855c-0.008-0.2-0.043-0.389-0.107-0.565c-0.064-0.176-0.152-0.327-0.266-0.456c-0.111-0.127-0.246-0.231-0.402-0.307
			c-0.154-0.076-0.321-0.115-0.498-0.115c-0.16,0-0.318,0.038-0.475,0.109c-0.154,0.072-0.299,0.166-0.433,0.282
			c-0.132,0.116-0.245,0.251-0.342,0.407c-0.096,0.157-0.163,0.319-0.204,0.487c0,0.119,0,0.263,0,0.426
			c0,0.164,0.002,0.336,0.006,0.517c0.006,0.179,0.008,0.361,0.008,0.546c0,0.185,0,0.348,0,0.493v2.03h-0.807l-0.012-6.005h0.805
			V129.84z"/>
		<path fill="#FFFFFF" d="M275.165,127.161v2.258h1.537v0.805h-1.537l0.013,5.117h-0.781c-0.009-0.657-0.013-1.293-0.013-1.91
			v-3.207h-0.864v-0.805h0.841v-2.258H275.165z"/>
		<path fill="#FFFFFF" d="M281.049,130.632c-0.183-0.176-0.401-0.311-0.653-0.408c-0.252-0.096-0.507-0.144-0.764-0.144
			c-0.336,0-0.619,0.073-0.852,0.221c-0.233,0.149-0.35,0.344-0.35,0.583c0,0.232,0.121,0.451,0.361,0.655s0.545,0.334,0.912,0.39
			c0.264,0.048,0.516,0.13,0.751,0.247c0.236,0.116,0.439,0.257,0.612,0.42c0.173,0.164,0.308,0.348,0.408,0.552
			c0.101,0.204,0.15,0.415,0.15,0.631c0,0.239-0.054,0.462-0.162,0.666c-0.107,0.205-0.252,0.381-0.432,0.529
			s-0.395,0.262-0.643,0.342c-0.248,0.08-0.509,0.12-0.781,0.12c-0.36,0-0.727-0.08-1.1-0.24c-0.371-0.16-0.682-0.392-0.93-0.697
			l0.611-0.456c0.17,0.167,0.378,0.31,0.625,0.426c0.249,0.117,0.501,0.173,0.758,0.173c0.352,0,0.648-0.08,0.888-0.24
			c0.24-0.16,0.36-0.368,0.36-0.624c0-0.112-0.036-0.225-0.107-0.337c-0.072-0.112-0.166-0.217-0.283-0.311
			c-0.115-0.097-0.25-0.186-0.401-0.266s-0.308-0.14-0.469-0.18c-0.265-0.04-0.513-0.121-0.745-0.24
			c-0.231-0.12-0.437-0.262-0.612-0.427c-0.177-0.164-0.315-0.343-0.421-0.54c-0.104-0.196-0.155-0.398-0.155-0.606
			c0-0.241,0.056-0.459,0.168-0.654c0.112-0.197,0.261-0.365,0.443-0.505c0.186-0.14,0.401-0.248,0.649-0.325
			c0.248-0.076,0.513-0.114,0.793-0.114c0.385,0,0.754,0.083,1.111,0.247c0.355,0.164,0.658,0.378,0.906,0.642L281.049,130.632z"/>
		<path fill="#FFFFFF" d="M282.694,129.336h1.057v1.057h-1.057V129.336z M282.694,134.284h1.057l0.014,1.058h-1.058L282.694,134.284
			z"/>
	</g>
</g>
</svg>
